<?xml version="1.0" encoding="UTF-8" standalone="no"?><!DOCTYPE svg PUBLIC "-//W3C//DTD SVG 1.1//EN" "http://www.w3.org/Graphics/SVG/1.1/DTD/svg11.dtd"><svg width="100%" height="100%" viewBox="0 0 12 12" version="1.1" xmlns="http://www.w3.org/2000/svg" xmlns:xlink="http://www.w3.org/1999/xlink" xml:space="preserve" style="fill-rule:evenodd;clip-rule:evenodd;stroke-linejoin:round;stroke-miterlimit:1.41421;"><path d="M5.617,3.085l-0.086,0.007l-0.017,0.083l-0.065,0.041l-0.106,0.008c-0.003,-0.024 -0.006,-0.043 -0.006,-0.043l-0.041,0l0,-0.089l0.172,0l0.036,-0.091l0.068,-0.002l0.078,0.016l-0.033,0.07Zm-0.438,0.153l-0.125,0.01l0.007,-0.086l0.055,-0.07l0.076,0.059l-0.013,0.087Zm3.26,-0.738l0.12,-0.192l0.161,-0.037l0.115,0.049l-0.01,0.13l-0.247,0.175l-0.139,0l0,-0.125Zm0.323,-0.374l0.055,-0.085l0.197,-0.039l0.05,0.239l0.105,0.169l0.07,0.081l0.127,0.049l-0.12,0.142l-0.232,0.023l-0.174,0l0.02,-0.207l0.145,-0.03l-0.013,-0.098l-0.135,-0.084l-0.095,-0.065l0,-0.095Zm1.684,2.139l0.104,0.075l0.098,0l0,-0.187l0.306,-0.03l0.292,0.217l0.478,0l0.034,-0.031c-0.048,-0.161 -0.102,-0.32 -0.162,-0.475l-0.313,0.005l-0.157,-0.172l-0.03,-0.277l-0.161,0.088l-0.086,0.338l-0.232,-0.247l-0.009,-0.233l-0.224,-0.193l-0.083,-0.081l-0.259,0l0.082,0.23l0.312,0.175l0.054,0.057l-0.067,0.034l0.003,0.183l-0.153,0.064l-0.13,-0.028l-0.081,-0.116l0.211,0.012l0.058,-0.077l-0.469,-0.316l-0.036,-0.135l-0.19,0.172l-0.193,-0.039l-0.293,0.382l-0.058,0.149l-0.188,0.017l-0.278,0.002l-0.166,-0.078l-0.049,-0.33l0.06,-0.157l0.282,-0.062l0.309,0.062l0.037,-0.171l-0.131,-0.03l0.045,-0.267l0.311,-0.048l0.217,-0.307l0.223,-0.037l0.203,0.029l0.075,0l-0.041,-0.287l-0.246,0.099l-0.087,-0.215l-0.143,-0.02l-0.026,-0.148l0.116,-0.126l0.277,-0.109l0.071,-0.127c-1.058,-0.932 -2.444,-1.499 -3.961,-1.499c-1.317,0 -2.534,0.427 -3.525,1.149l0.303,-0.002l0.134,0.074l0.254,0.055l0.02,0.1l0.404,0.015l-0.055,-0.13l-0.359,-0.01l0.085,-0.08l-0.029,-0.094l-0.325,0l0.354,-0.265l0.339,0l0.16,0.22l0.264,0.015l0.16,-0.155l0.119,0.06l-0.219,0.214c0,0 -0.304,0.005 -0.289,0.005c0.015,0 0.025,0.21 0.025,0.21l0.369,-0.011l0.039,-0.099l0.255,-0.015l0.03,-0.149l-0.15,-0.026l0.05,-0.134l0.115,-0.035l0.398,0.02l-0.219,0.2l0.035,0.154l0.229,0.035l-0.015,-0.279l0.22,-0.115l0.389,-0.045l0.563,0.25l0,0.214l0.18,0.045l-0.09,0.169l-0.254,0l-0.075,0.194l-0.582,-0.137l0.457,-0.243l-0.174,-0.148l-0.394,0.05l-0.035,0.036l-0.001,-0.001l-0.007,0.009l-0.113,0.118l-0.187,0.016l0.015,0.093l0.065,0.027l-0.002,0.031l-0.153,0.021l-0.011,0.088l-0.146,0.008l-0.026,-0.175l-0.262,0.079l-0.534,0.313l0.059,0.221l0.15,0.097l0.299,0.041l0,0.341l0.138,-0.023l0.128,-0.266l0.318,-0.1l0,-0.408l0.176,-0.133l0.428,0.1l-0.03,0.27l0.115,0l0.314,-0.155l0.015,0.354l0.229,0.14l-0.01,0.209l-0.219,0.075l0.015,0.07l0.264,0.119l-0.005,0.145l-0.077,0.007c0,-0.003 -0.001,-0.004 -0.001,-0.004l-0.333,-0.103l-0.014,-0.107l0,0l0.097,-0.067l0,-0.098l-0.105,-0.025l-0.026,0.089l-0.184,0.028l-0.018,-0.006l0,0.01l-0.063,0.01l-0.052,-0.106l-0.061,-0.025l-0.131,0l-0.059,0.048l0,0.108l0.112,0.038l0.11,0.015l-0.024,0.011l-0.101,0.112l-0.044,-0.056l-0.098,-0.026l-0.266,0.25l0.035,0.029l-0.392,0.217l-0.369,0.384l-0.025,0.171l-0.371,0.243l-0.183,0.184l0.02,0.369l-0.254,-0.118l0.002,-0.216l-0.708,0l-0.366,0.186l-0.159,0.293l-0.064,0.233l0.103,0.225l0.289,0.036l0.459,-0.308l0.04,0.153l-0.139,0.264l0.349,0.06l0.035,0.54l0.478,0.081l0.304,-0.352l0.369,0.075l0.13,0.181l0.354,-0.021l0.01,-0.105l0.194,0.095l0.22,0.344l0.378,0.005l0.14,0.244l0.02,0.299l0.419,0.16l0.528,0.005l0.155,0.254l0.235,0.075l-0.046,0.21l-0.256,0.326l-0.075,0.722l-0.232,0.183l-0.344,-0.01l-0.115,0.199l0.085,0.374l-0.374,0.479l-0.119,0.219l-0.357,0.172l-0.235,0.035l-0.009,0.1l0.164,0.047l-0.02,0.107l-0.147,0.142l0.09,0.113l0.177,0.005l-0.01,0.137l-0.047,0.134l-0.015,0.11l0.262,0.221l-0.035,0.115l-0.357,-0.007l-0.355,-0.311l-0.277,-0.486l0.039,-0.469l-0.21,-0.28l0.085,-0.473l-0.124,-0.035l0,-1.027c0,0 -0.35,-0.265 -0.369,-0.265c-0.02,0 -0.185,-0.044 -0.185,-0.044l-0.035,-0.195l-0.453,-0.568l0.044,-0.205l0.015,-0.334l0.314,-0.219l-0.045,-0.374l-0.458,-0.035l-0.359,-0.409l-0.255,-0.07l-0.164,-0.029l0.02,-0.15l-0.21,-0.03l0,0.085l-0.523,-0.13l-0.211,-0.322l0.086,-0.156l-0.331,-0.484l-0.058,-0.354l-0.134,0l0.045,0.343l0.229,0.355l-0.025,0.14l-0.194,-0.03l-0.24,-0.408l0,-0.475l-0.249,-0.12l0,-0.341c-0.308,0.721 -0.479,1.515 -0.479,2.348c0,3.308 2.692,6 6,6c1.876,0 3.552,-0.866 4.654,-2.218l-0.198,0l0,-0.398l-0.229,-0.309l0,-0.479l-0.175,-0.175l-0.015,-0.2l0.222,-0.423l-0.421,-0.743l0.049,-0.504l-0.378,-0.04l-0.14,-0.139l-0.255,0l-0.129,0.119l-0.448,0l-0.016,0.04l-0.249,0l-0.573,-0.653l0.004,-0.508l0.095,-0.035l0.035,-0.195l-0.134,0l-0.055,-0.204l0.663,-0.479l0,-0.339l0.324,-0.18l0.132,0.013l0.267,0l0.209,-0.112l0.673,-0.053l0,0.345l0.532,0.134Z" style="fill:#503d3f;fill-rule:nonzero;"/></svg>