<?xml version="1.0" standalone="no"?>
<!DOCTYPE svg PUBLIC "-//W3C//DTD SVG 20010904//EN"
 "http://www.w3.org/TR/2001/REC-SVG-20010904/DTD/svg10.dtd">
<svg version="1.0" xmlns="http://www.w3.org/2000/svg"
 width="310.000000pt" height="310.000000pt" viewBox="0 0 310.000000 310.000000"
 preserveAspectRatio="xMidYMid meet" style="border-radius:50%">
<metadata>
Created by potrace 1.15, written by Peter Selinger 2001-2017
</metadata>
 <style type="text/css">
    #globuzzer{fill:#ffffff}
    #globuzzer:hover {fill:#ff6700}
  </style>
<g id="globuzzer" transform="translate(0.000000,310.000000) scale(0.100000,-0.100000)"
 stroke="none" >
<path d="M0 1550 l0 -1550 1550 0 1550 0 0 1550 0 1550 -1550 0 -1550 0 0
-1550z m1761 1185 c218 -41 421 -133 564 -258 40 -35 40 -35 21 -56 -11 -12
-24 -21 -31 -21 -7 0 -19 -8 -28 -18 -16 -17 -15 -20 8 -42 13 -12 31 -20 39
-17 20 8 38 -17 34 -45 -3 -20 -10 -23 -50 -26 -39 -3 -51 -8 -68 -32 -11 -16
-34 -31 -50 -35 -31 -7 -40 -31 -20 -51 21 -21 -1 -46 -39 -43 -80 4 -82 3
-79 -43 3 -36 7 -44 31 -52 39 -14 69 1 109 54 19 25 43 46 53 48 11 2 31 8
44 15 18 9 25 9 35 -3 6 -8 19 -21 28 -28 15 -12 16 -11 5 17 -14 37 0 57 35
47 35 -9 88 -64 88 -90 0 -13 6 -29 14 -35 11 -9 16 -6 25 19 14 41 54 40 59
-2 4 -34 18 -46 61 -50 31 -3 36 -8 49 -46 7 -23 11 -49 8 -57 -8 -23 -94 -19
-131 5 -40 26 -75 26 -82 -1 -4 -16 -11 -19 -27 -14 -11 4 -42 13 -69 20 -63
19 -67 21 -67 57 l0 30 -62 -7 c-35 -4 -71 -11 -80 -16 -9 -5 -36 -9 -60 -9
-53 0 -85 -24 -90 -65 -2 -24 -16 -40 -65 -75 -65 -47 -74 -63 -46 -79 15 -8
16 -14 6 -43 -26 -73 -21 -102 32 -163 26 -31 53 -59 59 -61 10 -4 105 8 173
22 21 4 39 1 55 -10 12 -9 34 -16 49 -16 38 0 51 -20 43 -68 -6 -36 -1 -51 35
-117 l42 -76 -20 -40 c-25 -47 -27 -82 -6 -99 9 -8 15 -30 15 -57 0 -31 8 -55
25 -81 14 -20 25 -51 25 -69 0 -20 6 -36 17 -41 15 -9 13 -14 -17 -52 -18 -23
-65 -69 -103 -102 -423 -364 -1006 -398 -1466 -85 -101 68 -244 213 -310 312
-139 212 -201 420 -201 675 0 140 24 280 67 394 20 55 43 72 43 32 0 -16 9
-32 25 -42 21 -14 25 -24 25 -63 0 -33 7 -57 25 -84 14 -20 30 -37 35 -37 14
0 13 3 -15 51 -14 24 -25 59 -25 77 0 29 3 33 22 30 17 -2 24 -12 30 -41 4
-22 22 -58 39 -82 21 -30 29 -49 24 -64 -15 -47 61 -97 130 -83 18 3 32 -2 45
-16 11 -11 33 -23 49 -27 19 -4 43 -22 62 -46 17 -22 34 -38 36 -35 3 3 2 27
-2 55 -6 45 -10 50 -36 56 -30 7 -36 23 -19 56 14 25 7 24 -40 -7 -50 -33 -93
-27 -116 17 -14 28 -13 33 9 82 33 72 85 99 182 95 64 -3 70 -5 75 -27 9 -40
30 -38 30 3 0 31 6 40 55 76 30 22 55 47 55 54 0 13 63 73 158 151 31 26 47
46 44 57 -2 9 5 21 18 28 17 9 26 8 46 -5 20 -13 28 -13 47 -3 12 6 34 11 48
9 37 -3 45 24 14 45 -17 11 -25 26 -25 44 0 27 -1 28 -29 17 -37 -14 -64 -3
-56 23 5 15 0 21 -18 25 -14 4 -36 5 -48 3 -20 -2 -25 -10 -27 -43 -4 -46 -17
-65 -43 -65 -11 0 -25 -13 -34 -31 -21 -40 -58 -37 -65 5 -4 22 -12 32 -35 38
-34 9 -55 33 -55 62 0 15 18 31 57 54 71 42 108 50 117 27 5 -14 9 -15 21 -5
8 7 15 18 15 24 1 12 83 54 115 58 61 7 90 -33 44 -61 -24 -15 -27 -20 -14
-25 28 -10 55 -7 61 9 4 9 19 15 35 15 31 0 39 14 14 24 -8 3 -15 15 -15 26 0
40 -130 77 -179 50 -10 -5 -21 -23 -24 -40 -5 -24 -12 -30 -31 -30 -30 0 -54
36 -37 53 18 18 13 27 -14 27 -22 0 -24 -3 -19 -30 5 -23 2 -31 -12 -36 -11
-3 -28 -10 -39 -14 -68 -28 -100 -18 -93 29 3 18 0 31 -6 31 -6 0 -17 9 -24
20 -14 22 -52 26 -85 9 l-21 -12 22 -8 c12 -5 22 -15 22 -23 0 -9 11 -16 28
-18 36 -4 39 -41 2 -47 -22 -3 -45 6 -112 40 -10 5 -31 9 -48 9 -51 0 -37 31
33 72 150 88 253 127 412 158 115 23 297 25 406 5z"/>
<path d="M1139 1541 c-12 -17 -29 -31 -36 -31 -11 0 -13 -10 -8 -43 6 -38 4
-44 -23 -64 -23 -17 -30 -31 -35 -73 -6 -51 -5 -54 38 -109 25 -32 45 -63 45
-69 0 -7 11 -17 25 -22 14 -5 39 -20 55 -32 l30 -22 0 -108 c0 -74 4 -108 11
-108 8 0 10 -17 6 -53 -4 -42 -1 -57 14 -76 13 -16 19 -39 19 -76 0 -89 78
-195 144 -195 32 0 32 3 1 34 -19 19 -24 32 -19 51 5 19 0 30 -17 44 -21 18
-23 22 -11 42 11 16 11 23 2 29 -22 13 -6 44 25 50 46 10 73 28 98 64 12 19
35 50 51 70 25 31 27 39 17 66 -13 39 3 78 36 86 13 4 27 4 30 1 3 -4 18 0 33
8 28 14 40 50 40 121 0 18 12 46 30 70 36 48 37 62 6 74 -13 5 -27 18 -31 29
-5 18 -15 21 -60 21 -31 0 -73 8 -99 20 -37 15 -46 24 -46 44 0 14 -5 37 -12
51 -9 20 -18 25 -48 25 -32 0 -41 5 -63 39 -25 38 -26 38 -76 33 -39 -3 -56
-1 -69 12 -10 8 -32 19 -49 22 -26 5 -34 2 -54 -25z"/>
</g>
</svg>

